# xmcd
#
# Track frame offsets:
#	150
#	16742
#	30152
#	40787
#	54250
#	66555
#	79610
#	92075
#	103342
#	115395
#	128355
#	143975
#	158385
#	171717
#	185475
#	198940
#	214410
#	229137
#	250572
#	264832
#	277380
#	290700
#	306707
#	319227
#
# Disc length: 4431 seconds
#
# Revision: 0
# Processed by: cddbd v1.5.2PL0 Copyright (c) Steve Scherf et al.
# Submitted via: EasyCDDAExtractor 16.0.8.2
#
DISCID=5f114d18
DTITLE=Συλλογικός δίσκος - Δέκα χρόνια τραγούδι-1979, Στ. Κουγιουμτζής
DYEAR=1988
DGENRE=Έντεχνη λαϊκή
TTITLE0=Νταλάρας Γιώργος - Κάπου νυχτώνει [Σ. Κουγιουμτζή]
TTITLE1=Νταλάρας Γιώργος - Πού 'ναι τα χρόνια [Α. Δασκαλόπουλου]
TTITLE2=Νταλάρας Γιώργος - Το σακκάκι μου κι αν στάζει [Α. Δασκαλόπουλου]
TTITLE3=Νταλάρας Γιώργος - Βασανάκι, βασανάκι [Σ. Κουγιουμτζή]
TTITLE4=Νταλάρας Γιώργος - Δίχως την καρδούλα σου [Α. Δασκαλόπουλου]
TTITLE5=Νταλάρας Γιώργος - Ο ουρανός φεύγει βαρύς [Σ. Κουγιουμτζή]
TTITLE6=Νταλάρας Γιώργος - Έτσι είν' οι άνθρωποι [Σ. Τσώτου]
TTITLE7=Νταλάρας Γιώργος - Στα ψηλά τα παραθύρια [Λ. Παπαδόπουλου]
TTITLE8=Νταλάρας Γιώργος - Χελιδονάκι του Μαγιού [Σ. Κουγιουμτζή]
TTITLE9=Νταλάρας Γιώργος - Όλα καλά [Σ. Κουγιουμτζή]
TTITLE10=Νταλάρας Γιώργος - Αν δεις στον ύπνο σου ερημιά [Σ. Κουγιουμτζή]
TTITLE11=Νταλάρας Γιώργος - Νά 'τανε το 21 [Σ. Τσώτου]
TTITLE12=Νταλάρας Γιώργος - Το πουκάμισο το θαλασσί [Μ. Κορφιάτη]
TTITLE13=Νταλάρας Γιώργος - Ήταν πέντε, ήταν έξη [Σ. Κουγιουμτζή]
TTITLE14=Αλεξίου Χάρις - Χρόνια σαν βροχή [Μ. Ελευθερίου]
TTITLE15=Νταλάρας Γιώργος - Μ' έκοψαν, με χώρισαν [Γ. Θέμελη]
TTITLE16=Καλατζής Γιάννης - Ήσουν ωραία [Σ. Κουγιουμτζή]
TTITLE17=Νταλάρας Γιώργος - Μη μού θυμώνεις μάτια μου [Σ. Κουγιουμτζή]
TTITLE18=Αλεξίου Χάρις - Θά 'ταν 12 του Μάρτη [Μ. Μπουρμπούλη]
TTITLE19=Καλατζής Γιάννης - Ήθελα νά 'μουνα πουλί [Σ. Κουγιουμτζή]
TTITLE20=Βίσση Άννα - Στα χρόνια της υπομονής [Μ. Ελευθερίου]
TTITLE21=Κουγιουμτζή Αιμιλία - Πώς να σε πάρω [Γ. Θέμελη]
TTITLE22=Αλεξίου Χάρις - Μάτια μου, μάτια μου [Λ. Παπαδόπουλου]
TTITLE23=Νταλάρας Γιώργος - Τώρα που θα φύγεις [Μ. Ελευθερίου]
EXTD=
EXTT0=
EXTT1=
EXTT2=
EXTT3=
EXTT4=
EXTT5=
EXTT6=
EXTT7=
EXTT8=
EXTT9=
EXTT10=
EXTT11=
EXTT12=
EXTT13=
EXTT14=
EXTT15=
EXTT16=
EXTT17=
EXTT18=
EXTT19=
EXTT20=
EXTT21=
EXTT22=
EXTT23=
PLAYORDER=
